<?xml version="1.0" encoding="utf-8"?>
<!-- Generator: Adobe Illustrator 24.1.0, SVG Export Plug-In . SVG Version: 6.00 Build 0)  -->
<svg version="1.1" id="Layer_1" xmlns="http://www.w3.org/2000/svg" xmlns:xlink="http://www.w3.org/1999/xlink" x="0px" y="0px"
	 viewBox="0 0 500 320" style="enable-background:new 0 0 500 320;" xml:space="preserve">
<style type="text/css">
	.st0{fill:url(#SVGID_1_);}
	.st1{fill:url(#SVGID_2_);}
</style>
<g>
	<g id="Layer_1_1_">
		
			<image style="overflow:visible;opacity:0.15;enable-background:new    ;" width="470" height="290" xlink:href="97884D3E9A3A0BB1.png"  transform="matrix(1 0 0 1 17.12 13.57)">
		</image>
		
			<linearGradient id="SVGID_1_" gradientUnits="userSpaceOnUse" x1="150.3661" y1="-7.9304" x2="140.2661" y2="320.3795" gradientTransform="matrix(1 0 0 -1 0 338)">
			<stop  offset="0" style="stop-color:#FFB115"/>
			<stop  offset="0.12" style="stop-color:#FEB51A"/>
			<stop  offset="0.62" style="stop-color:#FCC52B"/>
			<stop  offset="1" style="stop-color:#FBCA31"/>
		</linearGradient>
		<path class="st0" d="M158.8,172.4V213h43c-0.7,5.3-2.4,10.4-5.1,15c-2.4,4-5.6,7.4-9.5,10c-3.9,2.6-8.3,4.5-12.9,5.6
			c-4.9,1.2-9.9,1.8-15,1.7c-8.7,0-16.4-1.5-23-4.4c-6.4-2.8-12.1-7.1-16.6-12.4c-4.6-5.6-8-12-10-19c-2.3-7.7-3.4-15.7-3.3-23.8
			c-0.1-8.7,1.2-17.4,3.9-25.6c2.3-7.2,5.9-13.8,10.7-19.6c4.5-5.4,10.1-9.7,16.5-12.5c6.7-3,14-4.5,21.4-4.4
			c8.9-0.1,17.7,2.4,25.2,7.2c7.4,4.8,13.4,12.7,18,23.8l49.7-20.6c-9.2-19-21.8-33.1-37.6-42.2s-34.3-13.6-55.3-13.6
			c-16.2,0-30.9,2.6-44,7.7c-1.2,0.5-2.3,1-3.4,1.4l-6.2-13.7c31.1-15.5,51.7-35.5,46.8-46.4c-5.3-11.7-38-8.3-72.9,7.5
			S20,72.9,25.3,84.5c5.1,11.2,35.4,8.6,68.7-5.7l6.3,14c-18.9,10.8-33.4,27.8-41,48.2c-5.2,13.8-7.8,28.4-7.6,43.1
			c0,15.8,2.6,30.3,7.7,43.4c4.8,12.6,12.2,24,21.6,33.6c9.5,9.5,20.8,16.9,33.3,21.8c12.9,5.2,27.2,7.7,42.8,7.7
			c11,0.1,22-1.4,32.6-4.3c10-2.7,19.6-6.9,28.4-12.5c8.6-5.4,16.3-12.3,22.6-20.3c6.6-8.4,11.7-17.8,15.2-27.9
			c2.8-7.9,4.5-16,5.3-24.3c0.9-9.7,1.4-19.4,1.3-29.1H158.8z M92.7,62.9C66.6,74.7,43.8,80.6,41.8,76.1s17.5-17.7,43.6-29.4
			s48.9-17.7,50.9-13.2S118.8,51.1,92.7,62.9z"/>
		
			<linearGradient id="SVGID_2_" gradientUnits="userSpaceOnUse" x1="373.6099" y1="35.43" x2="375.0999" y2="252.89" gradientTransform="matrix(1 0 0 -1 0 338)">
			<stop  offset="0" style="stop-color:#00487F"/>
			<stop  offset="1" style="stop-color:#19629F"/>
		</linearGradient>
		<path class="st1" d="M473.8,191c-8.3-23.9-41-24.5-43.1-42.4c-0.8-6.6,2.7-15.5,17.6-27l6.5,10.8l17.2-29.4l-36.1-2l7.1,11.8
			c-20.5,17.5-24,30.1-22.7,38.8c3.4,22.1,39.3,25.5,41.8,48.7c1.5,13.6-9.4,26.9-19.9,33.5c-6.7,4.2-14.5,6.4-22.4,6.3
			c2-6.3,3-12.9,2.9-19.5c0-5.6-0.7-11.2-2.1-16.6c-1.3-5.1-3.7-9.8-6.9-14c-3.4-4.3-7.6-7.9-12.4-10.5c-5.8-3.1-12-5.2-18.5-6.3
			c6.7-4,12.3-9.6,16.2-16.4c3.5-6.5,5.3-14.6,5.3-24.4c0-16.2-4.7-28.6-14-37.2s-23-12.9-40.9-12.9H274v195h81.5
			c9.4,0.1,18.8-1.1,27.9-3.6c7.7-2.1,14.9-5.8,21.1-10.9l5.2-5.1l0,0c3.4,0.2,31.8,1.5,50.8-21C462.4,234.5,481,212.1,473.8,191z
			 M324.7,121.2h9.3c15.9,0,23.8,6.3,23.8,18.9c0,12.6-7.9,18.9-23.8,18.9h-9.3V121.2z M363.2,233.2c-5.5,3.3-14.7,4.9-27.4,4.9
			h-11.1v-41.4h11.1c12.8,0,21.9,1.6,27.4,4.9c5.5,3.3,8.3,8.5,8.3,15.8C371.5,224.6,368.8,229.9,363.2,233.2L363.2,233.2z"/>
	</g>
</g>
</svg>
